# xmcd CD database file generated by Grip 3.2.0
# 
# Track frame offsets:
#       150
#       13998
#       28542
#       43159
#       56764
#       71082
#       84387
#       97867
#       110114
#       122304
#       136068
#       149401
#       162754
#       177667
#       192364
#       205481
#       219238
#       232016
# 
# Disc length: 3275 seconds
# 
# Revision: 1
# Processed by: cddbd v1.5.1PL0 Copyright (c) Steve Scherf et al.
# Submitted via: Grip 3.2.0
# 
DISCID=070cc912
DTITLE=john lee hooker - the blues young and wild 1948-1949 cd2
DYEAR=1900
DGENRE=Blues
TTITLE0=miss lorraine
TTITLE1=i love to boogie
TTITLE2=graveyard blues
TTITLE3=crawling king snake
TTITLE4=whistling and moaning blues
TTITLE5=hoogie boogie
TTITLE6=build myself a cave
TTITLE7=miss eloise
TTITLE8=burning hell
TTITLE9=black cat blues
TTITLE10=nightmare blues
TTITLE11=late last night
TTITLE12=wandering blues
TTITLE13=don't go baby
TTITLE14=devil's jump
TTITLE15=moaning blues
TTITLE16=weeping willow
TTITLE17=heart trouble blues
EXTD=
EXTT0=
EXTT1=
EXTT2=
EXTT3=
EXTT4=
EXTT5=
EXTT6=
EXTT7=
EXTT8=
EXTT9=
EXTT10=
EXTT11=
EXTT12=
EXTT13=
EXTT14=
EXTT15=
EXTT16=
EXTT17=
PLAYORDER=
